<svg xmlns="http://www.w3.org/2000/svg" viewBox="0 0 231.02 101.18"><defs><style>.cls-1{fill:none;stroke:#2777d8;stroke-miterlimit:10;stroke-width:2px;}</style></defs><g id="Layer_2" data-name="Layer 2"><g id="Layer_1-2" data-name="Layer 1"><path class="cls-1" d="M1,54.63V66.3A11.13,11.13,0,0,0,12.14,77.43h23a2.06,2.06,0,0,1,1.76,3.11L26.85,97.42a1.82,1.82,0,0,0,2.46,2.51l37.5-21.47a7.77,7.77,0,0,1,3.86-1H218.89A11.13,11.13,0,0,0,230,66.3V12.14A11.13,11.13,0,0,0,218.89,1H11.49A10.49,10.49,0,0,0,1,11.49V54.63Z"/></g></g></svg>