<?xml version="1.0" encoding="utf-8"?>
<!-- Generator: Adobe Illustrator 24.2.3, SVG Export Plug-In . SVG Version: 6.00 Build 0)  -->
<svg version="1.1" xmlns="http://www.w3.org/2000/svg" xmlns:xlink="http://www.w3.org/1999/xlink" x="0px" y="0px"
	 viewBox="0 0 795.5 232.6" style="enable-background:new 0 0 795.5 232.6;" xml:space="preserve">
<style type="text/css">
	.st0{fill:#EEFAFF;}
	.st1{clip-path:url(#SVGID_2_);}
	.st2{fill:#2B2A32;}
	.st3{fill:#1C1B21;}
	.st4{fill:#F3BE51;}
	.st5{fill:#64C455;}
	.st6{fill:#EA695D;}
	.st7{fill:#FCFCFC;}
	.st8{opacity:0.2;}
	.st9{clip-path:url(#SVGID_10_);}
	.st10{clip-path:url(#SVGID_12_);}
	.st11{fill:#FFFFFF;}
	.st12{clip-path:url(#SVGID_20_);}
	.st13{fill:url(#SVGID_23_);}
	.st14{fill:#414042;}
	.st15{fill:#0066B2;}
	.st16{fill:#50B748;}
	.st17{opacity:0.12;}
	.st18{clip-path:url(#SVGID_25_);}
	.st19{clip-path:url(#SVGID_27_);}
	.st20{clip-path:url(#SVGID_29_);}
	.st21{fill:url(#SVGID_32_);}
	.st22{clip-path:url(#SVGID_34_);}
	.st23{clip-path:url(#SVGID_36_);}
	.st24{clip-path:url(#SVGID_38_);}
	.st25{fill:url(#SVGID_41_);}
	.st26{clip-path:url(#SVGID_43_);}
	.st27{clip-path:url(#SVGID_45_);}
	.st28{clip-path:url(#SVGID_47_);}
	.st29{fill:#0FCE00;}
	.st30{clip-path:url(#SVGID_49_);}
	.st31{fill:#2F2E44;stroke:#42425E;stroke-width:1.7489;stroke-linecap:round;stroke-linejoin:round;stroke-miterlimit:10;}
	.st32{fill:#2F2E44;}
	.st33{fill:#45425B;}
	.st34{fill:#EAC87D;}
	.st35{fill:#B2C4D3;}
	.st36{fill:#B28049;}
	.st37{fill:#2777D8;}
	.st38{fill:#73BDFF;}
	.st39{fill:#D11020;}
	.st40{fill:#858585;}
	.st41{fill:#FDE4E3;}
	.st42{fill:#E2EBF8;}
	.st43{fill:#0075BE;}
	.st44{fill:#079B4B;}
	.st45{fill:#D8001A;}
	.st46{opacity:0.25;fill:#00365E;}
	.st47{fill:url(#SVGID_50_);}
	.st48{fill:url(#SVGID_51_);}
	.st49{opacity:0.25;}
	.st50{fill:#00365E;}
	.st51{fill:none;stroke:#2F2E44;stroke-width:1.6583;stroke-linecap:round;stroke-miterlimit:10;}
	.st52{clip-path:url(#SVGID_53_);}
	.st53{fill:#FF8D76;}
	.st54{fill:none;stroke:#2F2E44;stroke-width:1.7489;stroke-linecap:round;stroke-linejoin:round;stroke-miterlimit:10;}
	.st55{fill:#FFB600;}
	.st56{clip-path:url(#SVGID_55_);}
	.st57{fill:#2F2E44;stroke:#42425E;stroke-width:5;stroke-linecap:round;stroke-linejoin:round;stroke-miterlimit:10;}
	.st58{fill:#42425E;}
	.st59{fill:url(#SVGID_56_);}
	.st60{fill:url(#SVGID_57_);}
	.st61{fill:#FF3600;}
	.st62{clip-path:url(#SVGID_59_);}
	.st63{fill:url(#SVGID_60_);}
	.st64{fill:url(#SVGID_61_);}
	.st65{clip-path:url(#SVGID_63_);}
	.st66{clip-path:url(#SVGID_71_);}
	.st67{clip-path:url(#SVGID_75_);}
	.st68{clip-path:url(#SVGID_83_);}
	.st69{clip-path:url(#SVGID_85_);}
	.st70{fill:url(#SVGID_86_);}
	.st71{fill:url(#SVGID_87_);}
	.st72{clip-path:url(#SVGID_89_);}
	.st73{fill:#2F2E44;stroke:#42425E;stroke-width:1.5697;stroke-linecap:round;stroke-linejoin:round;stroke-miterlimit:10;}
	.st74{fill:none;stroke:#2F2E44;stroke-width:1.5697;stroke-linecap:round;stroke-miterlimit:10;}
	.st75{fill:url(#SVGID_90_);}
	.st76{fill:url(#SVGID_91_);}
	.st77{clip-path:url(#SVGID_93_);}
	.st78{clip-path:url(#SVGID_95_);}
	.st79{fill:#2F2E44;stroke:#42425E;stroke-width:1.2066;stroke-linecap:round;stroke-linejoin:round;stroke-miterlimit:10;}
	.st80{fill:url(#SVGID_96_);}
	.st81{fill:url(#SVGID_97_);}
	.st82{fill:none;stroke:#2F2E44;stroke-width:1.1441;stroke-linecap:round;stroke-miterlimit:10;}
	.st83{clip-path:url(#SVGID_99_);}
	.st84{fill:none;stroke:#2F2E44;stroke-width:1.2066;stroke-linecap:round;stroke-linejoin:round;stroke-miterlimit:10;}
	.st85{fill:url(#SVGID_102_);}
	.st86{clip-path:url(#SVGID_104_);}
	.st87{clip-path:url(#SVGID_106_);}
	.st88{clip-path:url(#SVGID_108_);}
	.st89{fill:url(#SVGID_111_);}
	.st90{fill:url(#SVGID_112_);}
	.st91{fill:url(#SVGID_115_);}
	.st92{clip-path:url(#SVGID_117_);}
	.st93{clip-path:url(#SVGID_119_);}
	.st94{clip-path:url(#SVGID_121_);}
	.st95{fill:#FFFFFF;stroke:#2777D8;stroke-width:2;stroke-linejoin:round;stroke-miterlimit:10;}
	.st96{clip-path:url(#SVGID_123_);}
	.st97{fill:#2F2E44;stroke:#42425E;stroke-width:1.4116;stroke-linecap:round;stroke-linejoin:round;stroke-miterlimit:10;}
	.st98{fill:#2F2E44;stroke:#42425E;stroke-width:1.4664;stroke-linecap:round;stroke-linejoin:round;stroke-miterlimit:10;}
	.st99{fill:url(#SVGID_124_);}
	.st100{fill:url(#SVGID_125_);}
	.st101{clip-path:url(#SVGID_127_);}
	.st102{clip-path:url(#SVGID_135_);}
	.st103{clip-path:url(#SVGID_139_);}
	.st104{fill:#2F2E44;stroke:#42425E;stroke-width:1.8654;stroke-linecap:round;stroke-linejoin:round;stroke-miterlimit:10;}
	.st105{fill:none;stroke:#2F2E44;stroke-width:1.8654;stroke-linecap:round;stroke-miterlimit:10;}
	.st106{fill:url(#SVGID_140_);}
	.st107{fill:url(#SVGID_141_);}
	.st108{clip-path:url(#SVGID_143_);}
	.st109{fill:url(#SVGID_144_);}
	.st110{fill:url(#SVGID_145_);}
	.st111{fill:url(#SVGID_146_);}
	.st112{fill:url(#SVGID_147_);}
	.st113{fill:url(#SVGID_148_);}
	.st114{fill:url(#SVGID_149_);}
	.st115{clip-path:url(#SVGID_151_);}
	.st116{fill:#2F2E44;stroke:#42425E;stroke-width:1.9823;stroke-linecap:round;stroke-linejoin:round;stroke-miterlimit:10;}
	.st117{fill:#2F2E44;stroke:#42425E;stroke-width:2.0593;stroke-linecap:round;stroke-linejoin:round;stroke-miterlimit:10;}
	.st118{fill:#FFFFFF;stroke:#2777D8;stroke-width:3;stroke-linejoin:round;stroke-miterlimit:10;}
	.st119{clip-path:url(#SVGID_153_);}
	.st120{clip-path:url(#SVGID_155_);}
	.st121{fill:url(#SVGID_156_);}
	.st122{fill:url(#SVGID_157_);}
</style>
<g id="BG">
</g>
<g id="Layer_1">
	<g>
		<g>
			<defs>
				<rect id="SVGID_152_" width="446.7" height="232.6"/>
			</defs>
			<clipPath id="SVGID_2_">
				<use xlink:href="#SVGID_152_"  style="overflow:visible;"/>
			</clipPath>
			<g class="st1">
				<g>
					<g>
						<path class="st116" d="M381.5,144.5c2.7-3.4,7.7-6.4,7.6-8.5c-0.3-4,1.2-9.1,4.6-8.6c5,0.7,3.8,6.7,2.6,10
							c-1.2,3,0.7,6.5-1.7,12.2"/>
						<path class="st116" d="M404.9,133.5c0,0-3-10.8,0.6-12.4c3.8-1.7,5.4,6.3,6.1,9.2"/>
						<path class="st116" d="M409.6,131.6c0,0-1.3-6.2,0.4-11.1c1.7-4.9,7.5-8.6,6.8,9.1"/>
						<path class="st116" d="M383.6,165.3c0,0-4.8-11.7-3.5-17.4c2.1-9.3,10.5-12,15.7-12.9c6.6-1.2,11.8-1.1,16.9-5.6
							c0,0,1.6-8.9,7.2-9.4c3.4-0.3,1.1,13-1.2,16.3c-5.1,7.2-14.2,11.1-17,22.6"/>
					</g>
					<path class="st117" d="M401.7,158.9c0,0,15.1,63.1,2,65.9c-13,2.7-54-40.6-54-40.6l0.4-17.2c0,0,27.3,29.1,47.9,45.1
						l-14.4-46.7"/>
				</g>
				<g>
					<g>
						<path class="st116" d="M52.2,173.7c-3.2-2.9-8.7-5-8.9-7c-0.4-4-2.7-8.7-6-7.7c-4.8,1.6-2.6,7.3-0.8,10.3
							c1.7,2.7,0.4,6.5,3.7,11.8"/>
						<path class="st116" d="M27.3,166.8c0,0,1.1-11.1-2.7-12.1c-4.1-1-4.3,7.2-4.5,10.1"/>
						<path class="st116" d="M22.3,165.8c0,0,0.2-6.3-2.2-10.9c-2.5-4.6-8.9-7.1-5.1,10.1"/>
						<path class="st116" d="M53.6,194.5c0,0,2.7-12.3,0.5-17.7c-3.6-8.8-12.4-10-17.7-10c-6.7,0-11.8,0.9-17.6-2.6
							c0,0-3.1-8.5-8.7-8.1c-3.4,0.3,1.1,13,3.9,15.8c6.2,6.2,15.9,8.5,20.6,19.4"/>
					</g>
					<path class="st117" d="M34.7,191.3c0,0-4,64.8,9.3,65.2s46.3-49.3,46.3-49.3l-3.4-16.8c0,0-21.9,33.4-39.5,52.6l6.2-48.5"/>
				</g>
				<g>
					<g>
						<g>
							<path class="st37" d="M365.4,141.9l1.4,16.3c0.4,4.1-2.7,7.7-6.8,8.1l-6.4,0.6l-4.1,163.2c-0.2,7.6-6.1,13.8-13.6,14.5
								l-203,17.6c-7.6,0.7-14.4-4.5-15.9-11.9L84.8,190.2l-6.4,0.6c-4.1,0.4-7.7-2.7-8.1-6.8l-1.4-16.3c-0.3-3.1,1.4-6,4.2-7.3
								l7.3-3.6l0,0c0,0,0,0,0,0c0,0,0,0,0,0l9.9-4.8c0,0-8.9-32.1,17.7-39.2l35-7.1c0,0,3.2,0.1,5.8-9.8
								c2.6-9.9,7.8-17.3,20.8-20.6c13-3.3,67.3-8,80.6-7c13.4,1,19.7,7.4,24,16.7c4.3,9.3,7.4,8.6,7.4,8.6l35.7,0.9
								c27.4,2.4,24.2,35.6,24.2,35.6l10.6,3.1c0,0,0,0,0,0c0,0,0,0,0,0s0,0,0,0l0,0l7.8,2.3C363,136.2,365.2,138.8,365.4,141.9z"/>
						</g>
						<g>
							<g>
								<path class="st11" d="M321.2,329.9c-58.8,5.1-117.6,10.2-176.3,15.3c-3.6,0.3-7.1-2.7-7.8-6.8c-8-43-16-86-24-129
									c-0.8-4.1,2-7.7,6.1-8c67.6-5.9,135.1-11.7,202.7-17.6c4.1-0.4,7.4,2.7,7.4,6.9c-0.5,43.7-0.9,87.5-1.4,131.2
									C327.7,326,324.8,329.6,321.2,329.9z"/>
								<path class="st41" d="M322.9,226.2c-65.8,5.7-131.6,11.4-197.5,17.1c-1.1-6.3-1.7-9.4-2.8-15.7
									c66.8-5.8,133.6-11.6,200.4-17.4C322.9,216.6,322.9,219.8,322.9,226.2z"/>
								<g>
									<path class="st44" d="M322.8,236.2c0,2.8-2.1,5.2-4.7,5.4c-2.6,0.2-4.7-1.8-4.7-4.6c0-2.8,2.1-5.2,4.7-5.4
										C320.7,231.4,322.8,233.5,322.8,236.2z"/>
								</g>
								<path class="st39" d="M264.7,227c-27.3,2.4-54.6,4.7-82,7.1c-0.4-2.9-0.6-4.4-0.9-7.3c27.5-2.4,55-4.8,82.5-7.2
									C264.5,222.5,264.6,224,264.7,227z"/>
								<g>
									<path class="st39" d="M159.5,232.4c0.5,3.7-1.9,7-5.5,7.3c-3.6,0.3-7-2.4-7.6-6.2c-0.6-3.7,1.9-7,5.5-7.3
										C155.5,225.9,158.9,228.6,159.5,232.4z"/>
									<path class="st39" d="M300.6,220.1c0.1,3.8-2.8,7.1-6.4,7.4c-3.6,0.3-6.6-2.5-6.7-6.2c-0.1-3.8,2.8-7.1,6.4-7.4
										C297.5,213.6,300.5,216.4,300.6,220.1z"/>
								</g>
								<path class="st37" d="M281.6,207.5c-39.6,3.4-79.2,6.9-118.7,10.3c-0.6-4.3-0.9-6.4-1.5-10.7c40-3.5,79.9-6.9,119.9-10.4
									C281.3,201,281.4,203.1,281.6,207.5z"/>
							</g>
						</g>
						<g class="st49">
							<path class="st50" d="M353.6,166.9l-1.6,62.8c-23.9-29.1-74.8-46.5-132-41.5c-57.2,5-104.3,30.9-122.9,63.6l-12.4-61.6
								L353.6,166.9z"/>
						</g>
						<g>
							<g>
								<path class="st38" d="M80.4,156.7C80.4,156.7,80.4,156.7,80.4,156.7L80.4,156.7C80.4,156.7,80.4,156.7,80.4,156.7z"/>
							</g>
							<g>
								<path class="st38" d="M103.2,168.3c0,0-29.8,5.7-34.3-0.7c-0.3-3.1,1.4-6,4.2-7.3l7.3-3.6c-0.3,0.2-6.1,5.2-1.2,7.1
									C86.6,166.6,103.2,168.3,103.2,168.3z"/>
							</g>
							<g>
								<path class="st38" d="M352.2,133.1L352.2,133.1C352.2,133.1,352.2,133.1,352.2,133.1C352.2,133.1,352.2,133.1,352.2,133.1z"
									/>
							</g>
							<g>
								<path class="st38" d="M365.4,141.9c-3.4,7.1-33.7,6.6-33.7,6.6s16.1-4.6,22.9-8.6c4.5-2.7-2.1-6.6-2.4-6.8l7.8,2.3
									C363,136.2,365.2,138.8,365.4,141.9z"/>
							</g>
						</g>
						<g>
							<g>
								<path class="st38" d="M100.6,130.1c-2.8-4.7,7.4-16.2,37.7-17.4c10.9-0.4-1.8,0.6-19.4,10.2
									C108.1,128.8,103.9,135.6,100.6,130.1z"/>
							</g>
							<g>
								<path class="st38" d="M95.5,143.1c3.7,2.2,7.9-1.3,7.1-4.3c-0.8-2.9-5.9-6.1-7.6-2C93.2,141.1,95.5,143.1,95.5,143.1z"/>
							</g>
						</g>
					</g>
				</g>
				<g>
					<g>
						<g>
							<g>
								<path class="st11" d="M199.5,103.7c-5.2,0.4-10.2-2.5-14.4-8.3c-4-5.7-6.6-13.5-7.4-21.9c0-0.2,0-0.4,0-0.5
									c-0.8-10.4,1.4-20.3,6-26.5c2.2-3,4.9-5.1,7.7-6c0.8-0.3,1.6-0.4,2.5-0.5c0,0,0,0,0,0c5.8-0.5,11.7,3.5,15.9,10.7
									c1.6-7.5,5.5-12.7,10.7-14.1c0.6-0.2,1.3-0.3,1.9-0.3c0.4,0,0.9-0.1,1.3,0c3.3,0.1,6.7,1.6,10,4.3
									c5.3,4.4,9.7,11.8,12.1,20.2c0.1,0.3,0.2,0.6,0.2,0.9c2.1,7.9,2.3,15.7,0.5,22.2c-1.8,6.6-5.4,11-10.3,12.2
									c-0.6,0.2-1.3,0.3-1.9,0.3c-6.7,0.6-14-4.8-19.1-14C213.6,94.5,207.4,103,199.5,103.7L199.5,103.7z"/>
								<path class="st32" d="M222.6,37c0.4,0,0.8,0,1.2,0c3.2,0.1,6.4,1.6,9.4,4.1c5,4.2,9.4,11.2,11.9,19.8
									c0.1,0.3,0.2,0.6,0.2,0.8c4.3,15.9,0.2,30.9-9.1,33.4c-0.6,0.2-1.2,0.3-1.8,0.3c-7,0.6-14.7-5.9-19.6-16
									c-1.2,12.9-7.3,22.7-15.4,23.4c-10,0.9-19.3-12.3-20.8-29.5c0-0.2,0-0.3,0-0.5c-0.8-10.5,1.5-20.1,5.8-26
									c2-2.8,4.5-4.8,7.3-5.7c0.7-0.2,1.5-0.4,2.3-0.5c0,0,0,0,0,0c6.3-0.5,12.2,4.4,16.2,12.4c0,0,0,0,0,0.1l0,0
									c1.1-8.2,4.8-14.4,10.5-15.9C221.4,37.2,222,37.1,222.6,37 M222.5,35.3c-0.7,0.1-1.4,0.2-2.1,0.4c-5.1,1.4-9,6-10.8,12.8
									c-4.3-6.4-9.9-9.9-15.6-9.4c-0.9,0.1-1.8,0.3-2.7,0.5c-3.1,1-5.9,3.1-8.2,6.3c-4.7,6.4-7,16.5-6.2,27.1c0,0.2,0,0.4,0,0.6
									c0.7,8.6,3.4,16.5,7.5,22.3c4.3,6.1,9.7,9.2,15.1,8.7c7.8-0.7,13.9-8.4,16.2-19.9c5.2,8.2,12.2,13,18.8,12.4
									c0.7-0.1,1.4-0.2,2.1-0.4c5.1-1.4,9-5.9,10.9-12.8c1.8-6.6,1.6-14.6-0.5-22.6c-0.1-0.3-0.2-0.6-0.2-0.9
									c-2.5-8.6-7-16.1-12.4-20.6c-3.4-2.8-7-4.4-10.5-4.5C223.4,35.3,222.9,35.3,222.5,35.3L222.5,35.3z"/>
							</g>
							
								<ellipse transform="matrix(1 -5.166257e-03 5.166257e-03 1 -0.3747 1.0534)" class="st32" cx="203.7" cy="73.1" rx="3" ry="7.8"/>
							<g class="st49">
								<path class="st50" d="M214.9,79.4c0.3,0.8,0.5,1.6,0.7,2.4c0.2,0.8,0.3,1.7,0.5,2.5c0.2,1.7,0.3,3.4,0.3,5.1
									c0,1.7-0.2,3.4-0.5,5.2c-0.1,0.4-0.2,0.9-0.3,1.3c-0.1,0.4-0.2,0.8-0.4,1.3c-0.1,0.4-0.3,0.8-0.4,1.3
									c-0.1,0.2-0.2,0.4-0.2,0.6l-0.3,0.6l-0.3,0.6c-0.1,0.2-0.2,0.4-0.3,0.6c-0.2,0.4-0.4,0.8-0.7,1.2c-0.3,0.4-0.5,0.8-0.8,1.1
									c-0.3,0.4-0.6,0.7-0.9,1c-1.3,1.3-2.8,2.4-4.5,3.1c-0.8,0.4-1.7,0.6-2.6,0.8c-0.9,0.1-1.8,0.3-2.6,0.3
									c-1.7,0.1-3.5-0.2-5.1-0.6c0.4-0.1,0.8-0.1,1.2-0.2c0.4-0.1,0.8-0.1,1.2-0.2c0.4-0.1,0.8-0.2,1.2-0.3c0.2,0,0.4-0.1,0.6-0.2
									l0.6-0.2c0.8-0.2,1.5-0.5,2.2-0.8c0.3-0.2,0.7-0.3,1-0.5c0.4-0.1,0.7-0.4,1-0.6c1.3-0.8,2.4-1.8,3.3-2.9
									c0.2-0.3,0.4-0.6,0.7-0.9c0.2-0.3,0.4-0.6,0.6-0.9c0.2-0.3,0.4-0.6,0.6-1c0.1-0.2,0.2-0.3,0.3-0.5l0.2-0.5l0.2-0.5
									c0.1-0.2,0.1-0.4,0.2-0.5c0.1-0.4,0.3-0.7,0.4-1.1c0.1-0.4,0.3-0.7,0.4-1.1c0.1-0.4,0.2-0.7,0.3-1.1c0.4-1.5,0.7-3.1,1-4.7
									C214.3,86,214.6,82.8,214.9,79.4z"/>
							</g>
							<g class="st49">
								<path class="st50" d="M214.9,79.4c1.6,2.9,3.2,5.6,4.9,8.3c1.7,2.6,3.6,5.1,5.8,7c0.5,0.5,1.1,1,1.7,1.4l0.9,0.6
									c0.3,0.2,0.6,0.3,0.9,0.5c1.3,0.7,2.6,1.1,4,1.3c0.2,0,0.4,0,0.5,0.1c0.2,0,0.4,0.1,0.5,0.1c0.4,0,0.7,0,1.1,0
									c0.4,0,0.7-0.1,1.1-0.1c0.4,0,0.8-0.1,1.1-0.1c0.4-0.1,0.8-0.1,1.2-0.2c0.4-0.1,0.8-0.2,1.2-0.3c0.4-0.1,0.8-0.2,1.2-0.3
									c0.4-0.1,0.8-0.2,1.2-0.3c-1.2,1.1-2.6,2.1-4.2,2.7c-0.8,0.4-1.6,0.6-2.5,0.8c-0.4,0.1-0.9,0.1-1.3,0.2
									c-0.2,0-0.4,0.1-0.7,0.1l-0.7,0c-1.8,0-3.6-0.4-5.3-1.1c-1.7-0.7-3.1-1.7-4.4-2.9c-2.6-2.4-4.5-5.3-5.8-8.3
									c-0.7-1.5-1.2-3.1-1.7-4.7c-0.2-0.8-0.4-1.6-0.5-2.4C215,81,214.9,80.2,214.9,79.4z"/>
							</g>
							
								<ellipse transform="matrix(0.9824 -0.1869 0.1869 0.9824 -9.1952 42.9338)" class="st32" cx="223.1" cy="70.2" rx="2.7" ry="7.1"/>
						</g>
						<g>
							<polygon class="st32" points="210.9,123.4 211.4,118.2 213.8,113.5 218.6,109.4 224.5,107.6 231.8,107.7 244.3,110.3 
								254.9,110.8 261.4,110.3 261,114.8 264.1,118.8 252.8,116.8 245.7,117 236.8,118.5 228.5,121.5 219.8,125.9 215.5,127.7 
								212.7,127.5 211.5,125.7 							"/>
							<path class="st11" d="M225.9,107.6c0.2,2.2-0.1,5-2.5,5.6c-2.3,0.6-4.3-1.2-5.6-2.9c0.8,1.7,1.3,3.8-0.2,5.4
								c-1.6,1.7-3.8,1.1-5.2,0.4l1.3-2.5l4-3.4l0,0l0.8-0.7l5.9-1.8L225.9,107.6z"/>
							<path class="st11" d="M234.7,108.3c-0.2,1.1-0.9,3-4,3.4c-2.6,0.3-4-2.1-4.6-4.1l5.8,0.1L234.7,108.3z"/>
							<path class="st53" d="M245.7,117l-8.9,1.6l-8.3,3l-8.7,4.4l-4.3,1.8l-2.7-0.2l-0.5-0.7l0,0c0,0,19.7-17.8,38.1-10
								C250.3,116.8,245.7,117,245.7,117z"/>
							<g>
								<path class="st32" d="M214.7,128.7c-0.8,0.1-1.4,0-2.1-0.3c-1.2-0.6-2-1.9-2.5-4.2c-0.7-3.7,0.5-9.3,4.8-13.3
									c3.4-3.2,9.9-6.3,21.1-3.1c17.8,5,37.1,0.3,41.3-3.8c0.4-0.4,0.8-0.9,0.7-1.4c-0.1-0.3-0.5-1.2-3.6-2.1
									c-12.5-3.4-17.2-7-17.4-7.1c-0.4-0.3-0.4-0.8-0.2-1.2c0.3-0.4,0.8-0.4,1.2-0.2c0,0,4.7,3.5,16.8,6.8
									c2.9,0.8,4.5,1.9,4.8,3.3c0.2,0.7,0.1,1.8-1.1,3.1c-2.6,2.5-8.9,4.7-16.7,5.8c-9,1.2-18.4,0.7-26.3-1.6
									c-10.5-2.9-16.4-0.1-19.5,2.7c-3.8,3.5-4.9,8.5-4.3,11.7c0.3,1.7,0.8,2.7,1.5,3c1.4,0.7,4.3-0.8,7.9-2.7
									c8.9-4.7,23.8-12.5,46.4-5.2c0.4,0.1,0.7,0.6,0.5,1.1c-0.1,0.4-0.6,0.7-1.1,0.5c-21.9-7.1-36.4,0.5-45.1,5.1
									C219,127.3,216.6,128.5,214.7,128.7z"/>
							</g>
							<g>
								<path class="st32" d="M212.6,134.7c-2.2,0.2-4-0.3-5.3-1.5c-3.9-3.6-2.3-12.2-2.3-12.5c0.1-0.5,0.5-0.8,1-0.7
									c0.5,0.1,0.8,0.5,0.7,1c0,0.1-1.5,8,1.7,11c1.3,1.2,3.2,1.4,5.8,0.7c0.5-0.1,0.9,0.1,1,0.6c0.1,0.5-0.1,0.9-0.6,1
									C213.9,134.5,213.2,134.6,212.6,134.7z"/>
							</g>
							<g>
								<path class="st32" d="M267.6,120.6c-0.1,0-0.2,0-0.3,0c-3.5-0.9-5.8-2.4-6.8-4.7c-1.3-3,0.1-5.9,0.2-6.1
									c0.2-0.4,0.7-0.6,1.1-0.4c0.4,0.2,0.6,0.7,0.4,1.1l0,0c0,0-1.2,2.4-0.2,4.6c0.8,1.7,2.7,3,5.6,3.7c0.5,0.1,0.7,0.6,0.6,1
									C268.2,120.3,267.9,120.6,267.6,120.6z"/>
							</g>
						</g>
					</g>
					<g>
						<path class="st32" d="M208.7,41.9c2.3-2.3,4.6-3.9,7-5.5c2.4-1.5,4.8-2.8,7.3-4c2.5-1.2,5-2.2,7.7-3.1c2.7-0.8,5.4-1.7,8.7-2
							c-1.5,2.9-3.5,5.1-5.8,7.1c-2.2,1.9-4.7,3.5-7.4,4.8c-2.6,1.3-5.4,2.2-8.3,2.8C214.9,42.3,211.9,42.6,208.7,41.9z"/>
					</g>
					<g>
						<path class="st32" d="M172.5,42.5c0.2-4.3,1.6-8.5,4.4-12.1c1.4-1.8,3.2-3.5,5.6-4.6c0.5-0.3,1.2-0.5,1.8-0.7
							c0.6-0.2,1.3-0.3,1.9-0.5c0.6-0.2,1.3-0.2,2-0.2c0.7-0.1,1.3,0,1.9,0.1c0.7,0,1.3,0.2,1.9,0.3c0.6,0.1,1.2,0.3,1.8,0.5
							c0.6,0.2,1.1,0.4,1.7,0.7c0.6,0.2,1.1,0.5,1.6,0.8c2,1.2,3.8,2.6,5.3,4.2c1.5,1.6,2.8,3.3,3.9,5.1c1.1,1.8,2,3.8,2.5,5.9
							c-3.6-2.3-6.8-4.6-10.1-6.5c-3.2-1.9-6.4-3.3-9.3-3.6c-1.4-0.2-2.8,0-4.1,0.4c-0.3,0.1-0.7,0.2-1,0.4
							c-0.3,0.2-0.7,0.3-1.1,0.5c-0.7,0.4-1.4,0.8-2.1,1.4c-1.4,1-2.8,2.3-4.2,3.6c-0.7,0.7-1.4,1.4-2.1,2.1
							C174,41,173.3,41.8,172.5,42.5z"/>
					</g>
				</g>
			</g>
		</g>
		<path class="st118" d="M779,111.3H413.2c-8.3,0-15-6.7-15-15v-19h-99.9l99.9-33.7v-19c0-8.3,6.7-15,15-15H779c8.3,0,15,6.7,15,15
			v71.7C794,104.6,787.2,111.3,779,111.3z"/>
		<g>
			<g>
				<path class="st37" d="M419,29.4h4.2v5.7h5.4v-5.7h4.2v15.2h-4.2v-5.8h-5.4v5.8H419V29.4z"/>
				<path class="st37" d="M435.5,32.9h4.1v1.6c0.8-1,1.8-1.9,3.5-1.9c1.6,0,2.8,0.7,3.4,1.9c1-1.2,2.2-1.9,3.9-1.9
					c2.5,0,4,1.6,4,4.3v7.7h-4.1v-6.4c0-1.3-0.6-1.9-1.6-1.9c-1,0-1.7,0.7-1.7,1.9v6.4h-4.1v-6.4c0-1.3-0.6-1.9-1.6-1.9
					c-1,0-1.7,0.7-1.7,1.9v6.4h-4.1V32.9z"/>
				<path class="st37" d="M456.8,32.9h4.1v1.6c0.8-1,1.8-1.9,3.5-1.9c1.6,0,2.8,0.7,3.4,1.9c1-1.2,2.2-1.9,3.9-1.9
					c2.5,0,4,1.6,4,4.3v7.7h-4.1v-6.4c0-1.3-0.6-1.9-1.6-1.9c-1,0-1.7,0.7-1.7,1.9v6.4h-4.1v-6.4c0-1.3-0.6-1.9-1.6-1.9
					c-1,0-1.7,0.7-1.7,1.9v6.4h-4.1V32.9z"/>
				<path class="st37" d="M477.6,46.6c1.5-0.2,2.2-0.9,2.2-2h-1.7v-4.2h4.3v3.4c0,3.2-1.8,4.3-4.5,4.4L477.6,46.6z"/>
				<path class="st37" d="M490.7,29.4h4.2v15.2h-4.2V29.4z"/>
				<path class="st37" d="M503,38.8L503,38.8c0-3.4,2.6-6.1,6.3-6.1c2.4,0,4,1,5,2.6l-2.8,2.1c-0.6-0.8-1.2-1.2-2.2-1.2
					c-1.3,0-2.3,1.2-2.3,2.6v0c0,1.5,1,2.7,2.3,2.7c1,0,1.6-0.5,2.3-1.2l2.8,2c-1.1,1.6-2.6,2.7-5.2,2.7
					C505.6,44.9,503,42.1,503,38.8z"/>
				<path class="st37" d="M515,38.8L515,38.8c0-3.4,2.7-6.2,6.5-6.2c3.7,0,6.5,2.8,6.5,6.1v0c0,3.3-2.7,6.1-6.5,6.1
					C517.7,44.9,515,42.1,515,38.8z M524,38.8L524,38.8c0-1.5-1-2.7-2.5-2.7c-1.5,0-2.4,1.2-2.4,2.6v0c0,1.4,1,2.6,2.5,2.6
					C523,41.4,524,40.2,524,38.8z"/>
				<path class="st37" d="M529.7,40.5v-7.7h4.1v6.3c0,1.3,0.7,2,1.7,2c1,0,1.7-0.7,1.7-2v-6.3h4.1v11.7h-4.1V43
					c-0.8,1-1.8,1.9-3.5,1.9C531.2,44.8,529.7,43.2,529.7,40.5z"/>
				<path class="st37" d="M543.8,28.8h4.1v15.8h-4.1V28.8z"/>
				<path class="st37" d="M549.8,38.8L549.8,38.8c0-3.9,2.4-6.2,5.2-6.2c1.8,0,2.8,0.8,3.6,1.7v-5.5h4.1v15.8h-4.1V43
					c-0.8,1-1.8,1.8-3.6,1.8C552.2,44.8,549.8,42.5,549.8,38.8z M558.7,38.7L558.7,38.7c0-1.6-1.1-2.7-2.4-2.7s-2.4,1.1-2.4,2.6v0
					c0,1.6,1.1,2.7,2.4,2.7S558.7,40.3,558.7,38.7z"/>
				<path class="st37" d="M570.9,32.9h4.1v1.6c0.8-1,1.8-1.9,3.5-1.9c2.5,0,4,1.6,4,4.3v7.7h-4.1v-6.3c0-1.3-0.7-2-1.6-2
					c-1,0-1.7,0.7-1.7,2v6.3h-4.1V32.9z"/>
				<path class="st37" d="M584.3,38.8L584.3,38.8c0-3.4,2.7-6.2,6.5-6.2c3.7,0,6.5,2.8,6.5,6.1v0c0,3.3-2.7,6.1-6.5,6.1
					C587,44.9,584.3,42.1,584.3,38.8z M593.2,38.8L593.2,38.8c0-1.5-1-2.7-2.5-2.7c-1.5,0-2.4,1.2-2.4,2.6v0c0,1.4,1,2.6,2.5,2.6
					C592.2,41.4,593.2,40.2,593.2,38.8z"/>
				<path class="st37" d="M599.5,40.9v-4.8h-1.4v-3.3h1.4v-3h4.1v3h2.7v3.3h-2.7v4c0,0.8,0.4,1.2,1.1,1.2c0.5,0,1.1-0.2,1.6-0.4v3.2
					c-0.7,0.4-1.7,0.7-2.9,0.7C600.9,44.8,599.5,43.7,599.5,40.9z"/>
				<path class="st37" d="M614.8,36.2h-1.4v-3.2h1.4v-0.3c0-1.3,0.3-2.3,1-3c0.7-0.7,1.7-1,3.1-1c1.3,0,2,0.1,2.7,0.3v2.9
					c-0.5-0.2-1-0.2-1.5-0.2c-0.8,0-1.2,0.3-1.2,1.1V33h2.7v3.2h-2.6v8.4h-4.1V36.2z"/>
				<path class="st37" d="M622.8,28.8h4.3v3h-4.3V28.8z M622.9,32.9h4.1v11.7h-4.1V32.9z"/>
				<path class="st37" d="M629.4,32.9h4.1v1.6c0.8-1,1.8-1.9,3.5-1.9c2.5,0,4,1.6,4,4.3v7.7h-4.1v-6.3c0-1.3-0.7-2-1.6-2
					c-1,0-1.7,0.7-1.7,2v6.3h-4.1V32.9z"/>
				<path class="st37" d="M642.9,38.8L642.9,38.8c0-3.9,2.4-6.2,5.2-6.2c1.8,0,2.8,0.8,3.6,1.7v-5.5h4.1v15.8h-4.1V43
					c-0.8,1-1.8,1.8-3.6,1.8C645.3,44.8,642.9,42.5,642.9,38.8z M651.7,38.7L651.7,38.7c0-1.6-1.1-2.7-2.4-2.7s-2.4,1.1-2.4,2.6v0
					c0,1.6,1.1,2.7,2.4,2.7S651.7,40.3,651.7,38.7z"/>
				<path class="st37" d="M663.6,47.1l1.3-2.9c0.6,0.4,1.3,0.6,1.8,0.6c0.4,0,0.7-0.1,1-0.5l-4.6-11.5h4.3l2.3,7.1l2.2-7.1h4.2
					l-4.3,11.4c-1,2.7-2.1,3.8-4.5,3.8C665.9,48.1,664.7,47.7,663.6,47.1z"/>
				<path class="st37" d="M676.4,38.8L676.4,38.8c0-3.4,2.7-6.2,6.5-6.2c3.7,0,6.5,2.8,6.5,6.1v0c0,3.3-2.7,6.1-6.5,6.1
					C679.1,44.9,676.4,42.1,676.4,38.8z M685.3,38.8L685.3,38.8c0-1.5-1-2.7-2.5-2.7c-1.5,0-2.4,1.2-2.4,2.6v0c0,1.4,1,2.6,2.5,2.6
					C684.4,41.4,685.3,40.2,685.3,38.8z"/>
				<path class="st37" d="M691.1,40.5v-7.7h4.1v6.3c0,1.3,0.7,2,1.7,2c1,0,1.7-0.7,1.7-2v-6.3h4.1v11.7h-4.1V43
					c-0.8,1-1.8,1.9-3.5,1.9C692.6,44.8,691.1,43.2,691.1,40.5z"/>
				<path class="st37" d="M705.1,32.9h4.1v2.4c0.7-1.6,1.8-2.6,3.7-2.6V37h-0.3c-2.1,0-3.4,1.2-3.4,3.9v3.6h-4.1V32.9z"/>
				<path class="st37" d="M720.4,28.8h4.3v3h-4.3V28.8z M720.4,32.9h4.1v11.7h-4.1V32.9z"/>
				<path class="st37" d="M727.6,40.9v-4.8h-1.4v-3.3h1.4v-3h4.1v3h2.7v3.3h-2.7v4c0,0.8,0.4,1.2,1.1,1.2c0.5,0,1.1-0.2,1.6-0.4v3.2
					c-0.7,0.4-1.7,0.7-2.9,0.7C729.1,44.8,727.6,43.7,727.6,40.9z"/>
				<path class="st37" d="M735.7,38.8L735.7,38.8c0-3.5,2.4-6.2,5.9-6.2c4,0,5.9,3,5.9,6.4c0,0.3,0,0.6,0,0.8h-7.8
					c0.3,1.3,1.3,1.9,2.5,1.9c1,0,1.8-0.4,2.6-1.2l2.3,1.9c-1.1,1.4-2.7,2.4-5.1,2.4C738.3,44.9,735.7,42.4,735.7,38.8z M743.7,37.8
					c-0.2-1.3-0.9-2.1-2-2.1c-1.1,0-1.8,0.8-2,2.1H743.7z"/>
				<path class="st37" d="M749.4,32.9h4.1v1.6c0.8-1,1.8-1.9,3.5-1.9c1.6,0,2.8,0.7,3.4,1.9c1-1.2,2.2-1.9,3.9-1.9
					c2.5,0,4,1.6,4,4.3v7.7h-4.1v-6.4c0-1.3-0.6-1.9-1.6-1.9c-1,0-1.7,0.7-1.7,1.9v6.4h-4.1v-6.4c0-1.3-0.6-1.9-1.6-1.9
					c-1,0-1.7,0.7-1.7,1.9v6.4h-4.1V32.9z"/>
				<path class="st37" d="M770.7,40.4h4.3v4.2h-4.3V40.4z"/>
				<path class="st37" d="M442.8,56.7h-4.5V53h13.3v3.7H447v11.5h-4.2V56.7z"/>
				<path class="st37" d="M453,56.5h4.1v2.4c0.7-1.6,1.8-2.6,3.7-2.6v4.3h-0.3c-2.1,0-3.4,1.2-3.4,3.9v3.6H453V56.5z"/>
				<path class="st37" d="M462.2,70.7l1.3-2.9c0.6,0.4,1.3,0.6,1.8,0.6c0.4,0,0.7-0.1,1-0.5l-4.6-11.5h4.3l2.3,7.1l2.2-7.1h4.2
					l-4.3,11.4c-1,2.7-2.1,3.8-4.5,3.8C464.6,71.7,463.3,71.3,462.2,70.7z"/>
				<path class="st37" d="M482.8,64.6v-4.8h-1.4v-3.3h1.4v-3h4.1v3h2.7v3.3h-2.7v4c0,0.8,0.4,1.2,1.1,1.2c0.5,0,1.1-0.2,1.6-0.4v3.2
					c-0.7,0.4-1.7,0.7-2.9,0.7C484.3,68.4,482.8,67.4,482.8,64.6z"/>
				<path class="st37" d="M491.2,70.7l1.3-2.9c0.6,0.4,1.3,0.6,1.8,0.6c0.4,0,0.7-0.1,1-0.5l-4.6-11.5h4.3l2.3,7.1l2.2-7.1h4.2
					l-4.3,11.4c-1,2.7-2.1,3.8-4.5,3.8C493.5,71.7,492.3,71.3,491.2,70.7z"/>
				<path class="st37" d="M505,56.5h4.1V58c0.8-1,1.8-1.8,3.6-1.8c2.8,0,5.2,2.3,5.2,6.1v0c0,3.8-2.4,6.1-5.2,6.1
					c-1.8,0-2.8-0.8-3.6-1.7v4.9H505V56.5z M513.8,62.4L513.8,62.4c0-1.6-1.1-2.7-2.4-2.7c-1.3,0-2.4,1.1-2.4,2.6v0
					c0,1.6,1.1,2.7,2.4,2.7C512.7,65,513.8,63.9,513.8,62.4z"/>
				<path class="st37" d="M519.7,52.4h4.3v3h-4.3V52.4z M519.8,56.5h4.1v11.7h-4.1V56.5z"/>
				<path class="st37" d="M526.3,56.5h4.1v1.6c0.8-1,1.8-1.9,3.5-1.9c2.5,0,4,1.6,4,4.3v7.7h-4.1v-6.3c0-1.3-0.7-2-1.6-2
					c-1,0-1.7,0.7-1.7,2v6.3h-4.1V56.5z"/>
				<path class="st37" d="M540,70.4l1.3-2.7c1.3,0.7,2.5,1.1,4.1,1.1c2.1,0,3.1-1,3.1-2.9v-0.5c-0.8,1-1.9,1.8-3.6,1.8
					c-2.9,0-5.2-2.1-5.2-5.4v0c0-3.4,2.4-5.5,5.1-5.5c1.8,0,2.8,0.7,3.7,1.6v-1.4h4.1v8.9c0,2.1-0.5,3.6-1.5,4.7
					c-1.1,1.1-2.7,1.6-5.2,1.6C543.6,71.7,541.7,71.2,540,70.4z M548.5,61.7L548.5,61.7c0-1.3-1-2.3-2.4-2.3c-1.4,0-2.4,1-2.4,2.3v0
					c0,1.3,1,2.3,2.4,2.3C547.5,64,548.5,63,548.5,61.7z"/>
				<path class="st37" d="M561.5,64.6v-4.8h-1.4v-3.3h1.4v-3h4.1v3h2.7v3.3h-2.7v4c0,0.8,0.4,1.2,1.1,1.2c0.5,0,1.1-0.2,1.6-0.4v3.2
					c-0.7,0.4-1.7,0.7-2.9,0.7C563,68.4,561.5,67.4,561.5,64.6z"/>
				<path class="st37" d="M570.4,52.4h4.1v5.7c0.8-1,1.8-1.9,3.5-1.9c2.5,0,4,1.6,4,4.3v7.7h-4.1v-6.3c0-1.3-0.7-2-1.6-2
					c-1,0-1.7,0.7-1.7,2v6.3h-4.1V52.4z"/>
				<path class="st37" d="M583.8,62.4L583.8,62.4c0-3.5,2.4-6.2,5.9-6.2c4,0,5.9,3,5.9,6.4c0,0.3,0,0.6,0,0.8h-7.8
					c0.3,1.3,1.3,1.9,2.5,1.9c1,0,1.8-0.4,2.6-1.2l2.3,1.9c-1.1,1.4-2.7,2.4-5.1,2.4C586.4,68.5,583.8,66,583.8,62.4z M591.8,61.4
					c-0.2-1.3-0.9-2.1-2-2.1c-1.1,0-1.8,0.8-2,2.1H591.8z"/>
				<path class="st37" d="M604.1,59.8h-1.4v-3.2h1.4v-0.3c0-1.3,0.3-2.3,1-3c0.7-0.7,1.7-1,3.1-1c1.3,0,2,0.1,2.7,0.3v2.9
					c-0.5-0.2-1-0.2-1.5-0.2c-0.8,0-1.2,0.3-1.2,1.1v0.3h2.7v3.2h-2.6v8.4h-4.1V59.8z"/>
				<path class="st37" d="M612.1,52.4h4.3v3h-4.3V52.4z M612.2,56.5h4.1v11.7h-4.1V56.5z"/>
				<path class="st37" d="M618.7,56.5h4.1v2.4c0.7-1.6,1.8-2.6,3.7-2.6v4.3h-0.3c-2.1,0-3.4,1.2-3.4,3.9v3.6h-4.1V56.5z"/>
				<path class="st37" d="M627.1,66.7l1.5-2.5c1.3,0.9,2.8,1.3,4,1.3c0.7,0,1-0.2,1-0.6v0c0-0.5-0.6-0.6-1.9-1
					c-2.3-0.6-4.2-1.4-4.2-3.7v0c0-2.5,2-3.9,4.7-3.9c1.7,0,3.5,0.5,4.8,1.4l-1.4,2.6c-1.2-0.7-2.5-1.1-3.5-1.1c-0.6,0-1,0.2-1,0.6
					v0c0,0.5,0.7,0.7,1.9,1c2.3,0.6,4.2,1.5,4.2,3.7v0c0,2.6-1.9,3.9-4.8,3.9C630.7,68.5,628.7,67.9,627.1,66.7z"/>
				<path class="st37" d="M639.8,64.6v-4.8h-1.4v-3.3h1.4v-3h4.1v3h2.7v3.3h-2.7v4c0,0.8,0.4,1.2,1.1,1.2c0.5,0,1.1-0.2,1.6-0.4v3.2
					c-0.7,0.4-1.7,0.7-2.9,0.7C641.2,68.4,639.8,67.4,639.8,64.6z"/>
				<path class="st37" d="M654.5,52.4h4.1v15.8h-4.1V52.4z"/>
				<path class="st37" d="M660.5,62.4L660.5,62.4c0-3.5,2.4-6.2,5.9-6.2c4,0,5.9,3,5.9,6.4c0,0.3,0,0.6,0,0.8h-7.8
					c0.3,1.3,1.3,1.9,2.5,1.9c1,0,1.8-0.4,2.6-1.2l2.3,1.9c-1.1,1.4-2.7,2.4-5.1,2.4C663.1,68.5,660.5,66,660.5,62.4z M668.4,61.4
					c-0.2-1.3-0.9-2.1-2-2.1c-1.1,0-1.8,0.8-2,2.1H668.4z"/>
				<path class="st37" d="M674.6,64.6v-4.8h-1.4v-3.3h1.4v-3h4.1v3h2.7v3.3h-2.7v4c0,0.8,0.4,1.2,1.1,1.2c0.5,0,1.1-0.2,1.6-0.4v3.2
					c-0.7,0.4-1.7,0.7-2.9,0.7C676.1,68.4,674.6,67.4,674.6,64.6z"/>
				<path class="st37" d="M684.2,64.6v-4.8h-1.4v-3.3h1.4v-3h4.1v3h2.7v3.3h-2.7v4c0,0.8,0.4,1.2,1.1,1.2c0.5,0,1.1-0.2,1.6-0.4v3.2
					c-0.7,0.4-1.7,0.7-2.9,0.7C685.6,68.4,684.2,67.4,684.2,64.6z"/>
				<path class="st37" d="M692.3,62.4L692.3,62.4c0-3.5,2.4-6.2,5.9-6.2c4,0,5.9,3,5.9,6.4c0,0.3,0,0.6,0,0.8h-7.8
					c0.3,1.3,1.3,1.9,2.5,1.9c1,0,1.8-0.4,2.6-1.2l2.3,1.9c-1.1,1.4-2.7,2.4-5.1,2.4C694.9,68.5,692.3,66,692.3,62.4z M700.3,61.4
					c-0.2-1.3-0.9-2.1-2-2.1c-1.1,0-1.8,0.8-2,2.1H700.3z"/>
				<path class="st37" d="M706,56.5h4.1v2.4c0.7-1.6,1.8-2.6,3.7-2.6v4.3h-0.3c-2.1,0-3.4,1.2-3.4,3.9v3.6H706V56.5z"/>
				<path class="st37" d="M720.7,64.8L720.7,64.8c0-2.5,1.8-3.7,4.6-3.7c1.1,0,2.1,0.2,2.8,0.5v-0.2c0-1.2-0.8-1.9-2.3-1.9
					c-1.2,0-2.2,0.2-3.2,0.6l-0.8-2.9c1.3-0.5,2.7-0.9,4.7-0.9c2.1,0,3.5,0.5,4.5,1.4c0.9,0.9,1.3,2.1,1.3,3.7v6.7h-4.1V67
					c-0.8,0.9-1.9,1.5-3.4,1.5C722.4,68.5,720.7,67.2,720.7,64.8z M728.1,64v-0.5c-0.4-0.2-1-0.3-1.6-0.3c-1.2,0-1.9,0.6-1.9,1.5v0
					c0,0.8,0.6,1.3,1.5,1.3C727.3,65.9,728.1,65.1,728.1,64z"/>
				<path class="st37" d="M734.5,56.5h4.1v1.6c0.8-1,1.8-1.9,3.5-1.9c2.5,0,4,1.6,4,4.3v7.7h-4.1v-6.3c0-1.3-0.7-2-1.6-2
					c-1,0-1.7,0.7-1.7,2v6.3h-4.1V56.5z"/>
				<path class="st37" d="M747.9,62.4L747.9,62.4c0-3.9,2.4-6.2,5.2-6.2c1.8,0,2.8,0.8,3.6,1.7v-5.5h4.1v15.8h-4.1v-1.6
					c-0.8,1-1.8,1.8-3.6,1.8C750.3,68.5,747.9,66.1,747.9,62.4z M756.7,62.4L756.7,62.4c0-1.6-1.1-2.7-2.4-2.7s-2.4,1.1-2.4,2.6v0
					c0,1.6,1.1,2.7,2.4,2.7S756.7,63.9,756.7,62.4z"/>
				<path class="st37" d="M432.9,90.3l1.5-2.5c1.3,0.9,2.8,1.3,4,1.3c0.7,0,1-0.2,1-0.6v0c0-0.5-0.6-0.6-1.9-1
					c-2.3-0.6-4.2-1.4-4.2-3.7v0c0-2.5,2-3.9,4.7-3.9c1.7,0,3.5,0.5,4.8,1.4l-1.4,2.6c-1.2-0.7-2.5-1.1-3.5-1.1c-0.6,0-1,0.2-1,0.6
					v0c0,0.5,0.7,0.7,1.9,1c2.3,0.6,4.2,1.5,4.2,3.7v0c0,2.6-1.9,3.9-4.8,3.9C436.4,92.1,434.5,91.5,432.9,90.3z"/>
				<path class="st37" d="M444.4,86L444.4,86c0-3.5,2.4-6.2,5.9-6.2c4,0,5.9,3,5.9,6.4c0,0.3,0,0.6,0,0.8h-7.8
					c0.3,1.3,1.3,1.9,2.5,1.9c1,0,1.8-0.4,2.6-1.2l2.3,1.9c-1.1,1.4-2.7,2.4-5.1,2.4C447,92.1,444.4,89.7,444.4,86z M452.3,85
					c-0.2-1.3-0.9-2.1-2-2.1c-1.1,0-1.8,0.8-2,2.1H452.3z"/>
				<path class="st37" d="M458.1,76h4.1v15.8h-4.1V76z"/>
				<path class="st37" d="M464.1,86L464.1,86c0-3.5,2.4-6.2,5.9-6.2c4,0,5.9,3,5.9,6.4c0,0.3,0,0.6,0,0.8h-7.8
					c0.3,1.3,1.3,1.9,2.5,1.9c1,0,1.8-0.4,2.6-1.2l2.3,1.9c-1.1,1.4-2.7,2.4-5.1,2.4C466.7,92.1,464.1,89.7,464.1,86z M472.1,85
					c-0.2-1.3-0.9-2.1-2-2.1c-1.1,0-1.8,0.8-2,2.1H472.1z"/>
				<path class="st37" d="M477.2,86L477.2,86c0-3.4,2.6-6.1,6.3-6.1c2.4,0,4,1,5,2.6l-2.8,2.1c-0.6-0.8-1.2-1.2-2.2-1.2
					c-1.3,0-2.3,1.2-2.3,2.6v0c0,1.5,1,2.7,2.3,2.7c1,0,1.6-0.5,2.3-1.2l2.8,2c-1.1,1.6-2.6,2.7-5.2,2.7
					C479.8,92.1,477.2,89.3,477.2,86z"/>
				<path class="st37" d="M490.9,88.2v-4.8h-1.4v-3.3h1.4v-3h4.1v3h2.7v3.3H495v4c0,0.8,0.4,1.2,1.1,1.2c0.5,0,1.1-0.2,1.6-0.4v3.2
					c-0.7,0.4-1.7,0.7-2.9,0.7C492.4,92.1,490.9,91,490.9,88.2z"/>
				<path class="st37" d="M506.2,83.4h-1.4v-3.2h1.4v-0.3c0-1.3,0.3-2.3,1-3c0.7-0.7,1.7-1,3.1-1c1.3,0,2,0.1,2.7,0.3v2.9
					c-0.5-0.2-1-0.2-1.5-0.2c-0.8,0-1.2,0.3-1.2,1.1v0.3h2.7v3.2h-2.6v8.4h-4.1V83.4z"/>
				<path class="st37" d="M514.3,80.1h4.1v2.4c0.7-1.6,1.8-2.6,3.7-2.6v4.3h-0.3c-2.1,0-3.4,1.2-3.4,3.9v3.6h-4.1V80.1z"/>
				<path class="st37" d="M523.1,86L523.1,86c0-3.4,2.7-6.2,6.5-6.2c3.7,0,6.5,2.8,6.5,6.1v0c0,3.3-2.7,6.1-6.5,6.1
					C525.8,92.1,523.1,89.4,523.1,86z M532,86L532,86c0-1.5-1-2.7-2.5-2.7c-1.5,0-2.4,1.2-2.4,2.6v0c0,1.4,1,2.6,2.5,2.6
					C531.1,88.6,532,87.4,532,86z"/>
				<path class="st37" d="M537.9,80.1h4.1v1.6c0.8-1,1.8-1.9,3.5-1.9c1.6,0,2.8,0.7,3.4,1.9c1-1.2,2.2-1.9,3.9-1.9
					c2.5,0,4,1.6,4,4.3v7.7h-4.1v-6.4c0-1.3-0.6-1.9-1.6-1.9c-1,0-1.7,0.7-1.7,1.9v6.4h-4.1v-6.4c0-1.3-0.6-1.9-1.6-1.9
					c-1,0-1.7,0.7-1.7,1.9v6.4h-4.1V80.1z"/>
				<path class="st37" d="M565.6,88.2v-4.8h-1.4v-3.3h1.4v-3h4.1v3h2.7v3.3h-2.7v4c0,0.8,0.4,1.2,1.1,1.2c0.5,0,1.1-0.2,1.6-0.4v3.2
					c-0.7,0.4-1.7,0.7-2.9,0.7C567.1,92.1,565.6,91,565.6,88.2z"/>
				<path class="st37" d="M574.5,76h4.1v5.7c0.8-1,1.8-1.9,3.5-1.9c2.5,0,4,1.6,4,4.3v7.7H582v-6.3c0-1.3-0.7-2-1.6-2
					c-1,0-1.7,0.7-1.7,2v6.3h-4.1V76z"/>
				<path class="st37" d="M587.9,86L587.9,86c0-3.5,2.4-6.2,5.9-6.2c4,0,5.9,3,5.9,6.4c0,0.3,0,0.6,0,0.8h-7.8
					c0.3,1.3,1.3,1.9,2.5,1.9c1,0,1.8-0.4,2.6-1.2l2.3,1.9c-1.1,1.4-2.7,2.4-5.1,2.4C590.5,92.1,587.9,89.7,587.9,86z M595.9,85
					c-0.2-1.3-0.9-2.1-2-2.1c-1.1,0-1.8,0.8-2,2.1H595.9z"/>
				<path class="st37" d="M607,86L607,86c0-3.9,2.4-6.2,5.2-6.2c1.8,0,2.8,0.8,3.6,1.7V76h4.1v15.8h-4.1v-1.6
					c-0.8,1-1.8,1.8-3.6,1.8C609.4,92.1,607,89.8,607,86z M615.8,86L615.8,86c0-1.6-1.1-2.7-2.4-2.7s-2.4,1.1-2.4,2.6v0
					c0,1.6,1.1,2.7,2.4,2.7S615.8,87.5,615.8,86z"/>
				<path class="st37" d="M622.3,80.1h4.1v2.4c0.7-1.6,1.8-2.6,3.7-2.6v4.3h-0.3c-2.1,0-3.4,1.2-3.4,3.9v3.6h-4.1V80.1z"/>
				<path class="st37" d="M631.1,86L631.1,86c0-3.4,2.7-6.2,6.5-6.2c3.7,0,6.5,2.8,6.5,6.1v0c0,3.3-2.7,6.1-6.5,6.1
					C633.8,92.1,631.1,89.4,631.1,86z M640,86L640,86c0-1.5-1-2.7-2.5-2.7c-1.5,0-2.4,1.2-2.4,2.6v0c0,1.4,1,2.6,2.5,2.6
					C639.1,88.6,640,87.4,640,86z"/>
				<path class="st37" d="M645.8,80.1h4.1v1.6c0.8-1,1.8-1.8,3.6-1.8c2.8,0,5.2,2.3,5.2,6.1v0c0,3.8-2.4,6.1-5.2,6.1
					c-1.8,0-2.8-0.8-3.6-1.7v4.9h-4.1V80.1z M654.7,86L654.7,86c0-1.6-1.1-2.7-2.4-2.7c-1.3,0-2.4,1.1-2.4,2.6v0
					c0,1.6,1.1,2.7,2.4,2.7C653.6,88.6,654.7,87.6,654.7,86z"/>
				<path class="st37" d="M660.1,86L660.1,86c0-3.9,2.4-6.2,5.2-6.2c1.8,0,2.8,0.8,3.6,1.7V76h4.1v15.8h-4.1v-1.6
					c-0.8,1-1.8,1.8-3.6,1.8C662.5,92.1,660.1,89.8,660.1,86z M668.9,86L668.9,86c0-1.6-1.1-2.7-2.4-2.7s-2.4,1.1-2.4,2.6v0
					c0,1.6,1.1,2.7,2.4,2.7S668.9,87.5,668.9,86z"/>
				<path class="st37" d="M674.8,86L674.8,86c0-3.4,2.7-6.2,6.5-6.2c3.7,0,6.5,2.8,6.5,6.1v0c0,3.3-2.7,6.1-6.5,6.1
					C677.5,92.1,674.8,89.4,674.8,86z M683.7,86L683.7,86c0-1.5-1-2.7-2.5-2.7c-1.5,0-2.4,1.2-2.4,2.6v0c0,1.4,1,2.6,2.5,2.6
					C682.8,88.6,683.7,87.4,683.7,86z"/>
				<path class="st37" d="M688.2,80.1h4l1.5,5.9l1.8-5.9h3.4l1.8,6l1.6-5.9h4l-3.6,11.8h-3.6l-1.9-6.1l-1.9,6.1h-3.5L688.2,80.1z"/>
				<path class="st37" d="M707.6,80.1h4.1v1.6c0.8-1,1.8-1.9,3.5-1.9c2.5,0,4,1.6,4,4.3v7.7H715v-6.3c0-1.3-0.7-2-1.6-2
					c-1,0-1.7,0.7-1.7,2v6.3h-4.1V80.1z"/>
				<path class="st37" d="M727.4,76h4.1v15.8h-4.1V76z"/>
				<path class="st37" d="M733.9,76h4.3v3h-4.3V76z M734,80.1h4.1v11.7H734V80.1z"/>
				<path class="st37" d="M739.6,90.3l1.5-2.5c1.3,0.9,2.8,1.3,4,1.3c0.7,0,1-0.2,1-0.6v0c0-0.5-0.6-0.6-1.9-1
					c-2.3-0.6-4.2-1.4-4.2-3.7v0c0-2.5,2-3.9,4.7-3.9c1.7,0,3.5,0.5,4.8,1.4l-1.4,2.6c-1.2-0.7-2.5-1.1-3.5-1.1c-0.6,0-1,0.2-1,0.6
					v0c0,0.5,0.7,0.7,1.9,1c2.3,0.6,4.2,1.5,4.2,3.7v0c0,2.6-1.9,3.9-4.8,3.9C743.2,92.1,741.2,91.5,739.6,90.3z"/>
				<path class="st37" d="M752.3,88.2v-4.8h-1.4v-3.3h1.4v-3h4.1v3h2.7v3.3h-2.7v4c0,0.8,0.4,1.2,1.1,1.2c0.5,0,1.1-0.2,1.6-0.4v3.2
					c-0.7,0.4-1.7,0.7-2.9,0.7C753.7,92.1,752.3,91,752.3,88.2z"/>
				<path class="st37" d="M761.1,78.5v-1.8h4.7v1.8l-1.3,8.4h-2.2L761.1,78.5z M761.3,88.1h4.3v3.7h-4.3V88.1z"/>
			</g>
		</g>
		<g>
			<g>
				<path class="st32" d="M279.2,24.7c0.1-0.4,0.3-0.5,0.7-0.4c7.5,1.8,10.6,0.9,11.5-1.8l0-0.1c0.7-2.1-0.6-4-3.5-5
					c-2.3-0.8-5.2-0.7-8.2,0.3c-1.3,0.4-2.7-0.4-3.1-1.6l-1.9-5.6c-0.4-1.3,0.2-2.7,1.4-3.1c4.6-1.8,10-2.3,16.2-0.2
					c9.2,3,14,10.2,11.3,18.3l0,0.1c-2.4,7.3-8.1,9.3-14.9,9c-0.9,0-1.8,0.5-2.3,1.3l-0.3,0.5c-0.6,1.1-1.8,1.6-3,1.2l-3.5-1.2
					c-1.2-0.4-1.9-1.6-1.7-2.8L279.2,24.7z M278.9,40.1l1.7,0.6c2.9,1,4.5,4.1,3.6,7.1v0c-1,2.9-4.1,4.5-7.1,3.6l-1.7-0.6
					c-2.9-1-4.5-4.1-3.6-7.1v0C272.8,40.8,275.9,39.2,278.9,40.1z"/>
			</g>
		</g>
	</g>
</g>
</svg>
