<svg xmlns="http://www.w3.org/2000/svg" viewBox="0 0 179.5 74.69"><defs><style>.cls-1{fill:#fff;}.cls-2{font-size:12.89px;font-family:Futura-Bold, Futura;font-weight:700;}.cls-2,.cls-9{fill:#50b748;}.cls-3{letter-spacing:-0.01em;}.cls-4{letter-spacing:0em;}.cls-5{letter-spacing:0em;}.cls-6{letter-spacing:-0.01em;}.cls-7{letter-spacing:-0.03em;}.cls-8{fill:#0066b2;}</style></defs><g id="Layer_2" data-name="Layer 2"><g id="Layer_1-2" data-name="Layer 1"><polyline class="cls-1" points="179.49 8.51 173.48 8.51 173.48 11.76 179.16 11.76 179.16 16.04 173.48 16.04 173.48 19.4 179.5 19.4 179.5 23.68 168.42 23.68 168.41 4.22 179.49 4.22 179.49 8.51"/><text class="cls-2" transform="translate(4.01 71.28)"><tspan class="cls-3">Ca</tspan><tspan class="cls-4" x="17.07" y="0">r</tspan><tspan class="cls-3" x="22.88" y="0">e </tspan><tspan class="cls-5" x="34.93" y="0">f</tspan><tspan class="cls-6" x="39.93" y="0">o</tspan><tspan class="cls-3" x="48.34" y="0">r our e</tspan><tspan class="cls-7" x="92.94" y="0">n</tspan><tspan class="cls-3" x="101.11" y="0">vironmen</tspan><tspan x="164.13" y="0">t</tspan></text><path class="cls-1" d="M86.72,23.72h-6.3l-4.83-7.48v7.48H70.53V4.26H78.4a7.71,7.71,0,0,1,2.84.48,5.55,5.55,0,0,1,2,1.3A5.64,5.64,0,0,1,84.43,8a6.81,6.81,0,0,1,.4,2.32,5.73,5.73,0,0,1-1.07,3.6,5.45,5.45,0,0,1-3.16,1.88l6.12,8M75.59,13h1a3.71,3.71,0,0,0,2.3-.62,2.13,2.13,0,0,0,.8-1.78,2.11,2.11,0,0,0-.8-1.78,3.66,3.66,0,0,0-2.3-.62h-1Z"/><polyline class="cls-1" points="99.64 8.54 93.63 8.54 93.63 11.79 99.3 11.79 99.31 16.07 93.63 16.08 93.63 19.43 99.64 19.43 99.65 23.71 88.57 23.72 88.57 4.26 99.64 4.25 99.64 8.54"/><path class="cls-1" d="M117.29,10.75A5.38,5.38,0,0,0,113,8.61a5.44,5.44,0,0,0-2.11.41,5.09,5.09,0,0,0-1.66,1.13,5.2,5.2,0,0,0-1.1,1.69,5.66,5.66,0,0,0-.4,2.11,5.6,5.6,0,0,0,.41,2.15,5.14,5.14,0,0,0,1.1,1.7,5.19,5.19,0,0,0,1.67,1.13,4.93,4.93,0,0,0,2.06.41,5.85,5.85,0,0,0,4.37-2.06v6l-.52.18a15.22,15.22,0,0,1-2.17.6,10.39,10.39,0,0,1-2,.2,10.15,10.15,0,0,1-7.11-2.9,10.43,10.43,0,0,1-2.26-3.28,10.09,10.09,0,0,1-.86-4.14,10,10,0,0,1,.84-4.12,10.15,10.15,0,0,1,5.51-5.34,10.14,10.14,0,0,1,3.89-.76,10.92,10.92,0,0,1,2.29.24,14,14,0,0,1,2.36.76v6"/><polyline class="cls-1" points="125.19 14.36 118.09 4.25 124.13 4.24 127.75 9.56 131.33 4.24 137.37 4.24 130.25 14.36 130.25 23.7 125.2 23.7 125.19 14.36"/><path class="cls-1" d="M151.49,10.73A5.47,5.47,0,0,0,145.05,9a5.22,5.22,0,0,0-1.67,1.12,5.29,5.29,0,0,0-1.09,1.69,5.87,5.87,0,0,0,0,4.26,5.1,5.1,0,0,0,2.78,2.84,5.19,5.19,0,0,0,2.06.41,5.84,5.84,0,0,0,4.36-2.07v6l-.51.18a14.76,14.76,0,0,1-2.17.61,10.41,10.41,0,0,1-2,.2,10.15,10.15,0,0,1-7.11-2.91,10.67,10.67,0,0,1-2.26-3.27,10,10,0,0,1-.85-4.14,10.11,10.11,0,0,1,.83-4.12,10.35,10.35,0,0,1,11.7-5.86,13.37,13.37,0,0,1,2.36.76v6"/><polyline class="cls-1" points="159.74 4.23 159.75 19.4 165.81 19.4 165.82 23.68 154.69 23.69 154.69 4.23 159.74 4.23"/><path class="cls-1" d="M86.73,48.17h-6.3L75.6,40.69v7.48H70.54V28.71h7.87a7.71,7.71,0,0,1,2.84.48,5.55,5.55,0,0,1,2,1.3,5.64,5.64,0,0,1,1.19,1.91,6.81,6.81,0,0,1,.4,2.32,5.73,5.73,0,0,1-1.07,3.6,5.45,5.45,0,0,1-3.16,1.88l6.12,8M75.6,37.41h1a3.71,3.71,0,0,0,2.3-.62,2.38,2.38,0,0,0,0-3.56,3.66,3.66,0,0,0-2.3-.62h-1Z"/><polyline class="cls-1" points="93.63 28.71 93.64 48.16 88.58 48.17 88.58 28.71 93.63 28.71"/><path class="cls-1" d="M107.19,37.27h10c0,1,0,2-.13,2.82a10.21,10.21,0,0,1-.52,2.35,9.32,9.32,0,0,1-1.47,2.69,8.52,8.52,0,0,1-2.18,2,10.47,10.47,0,0,1-2.75,1.2,11.9,11.9,0,0,1-3.14.41,11.27,11.27,0,0,1-4.15-.74,9.39,9.39,0,0,1-3.21-2.11,9.62,9.62,0,0,1-2.09-3.25,11.28,11.28,0,0,1-.75-4.19,11.41,11.41,0,0,1,.73-4.17,9.08,9.08,0,0,1,5.36-5.33,11.53,11.53,0,0,1,4.25-.75,10.66,10.66,0,0,1,5.35,1.31,9.18,9.18,0,0,1,3.64,4.08l-4.8,2a4.89,4.89,0,0,0-1.75-2.3,4.38,4.38,0,0,0-2.43-.7,5.14,5.14,0,0,0-2.07.43,4.52,4.52,0,0,0-1.59,1.22,5.91,5.91,0,0,0-1,1.89,7.73,7.73,0,0,0-.37,2.48,8,8,0,0,0,.32,2.3,5.35,5.35,0,0,0,1,1.83,4.33,4.33,0,0,0,1.6,1.2,5.49,5.49,0,0,0,2.22.42,6.32,6.32,0,0,0,1.45-.16,4,4,0,0,0,1.25-.55,3.09,3.09,0,0,0,.91-1,3.82,3.82,0,0,0,.49-1.45h-4.15V37.27"/><polyline class="cls-1" points="125.48 36.2 132.79 36.2 132.78 28.69 137.84 28.69 137.85 48.15 132.79 48.15 132.79 40.12 125.49 40.13 125.49 48.15 120.43 48.15 120.42 28.69 125.48 28.69 125.48 36.2"/><polyline class="cls-1" points="149.3 32.97 149.31 48.14 144.25 48.14 144.25 32.97 140.09 32.97 140.09 28.69 153.46 28.68 153.46 32.97 149.3 32.97"/><path class="cls-8" d="M1.79,40l-.08,0L6.2,48.15c1.17,2.12,3.35,1.94,6,2l3.51-.09.12-7.57L8,42.52A7.43,7.43,0,0,1,1.79,40"/><path class="cls-8" d="M16,20.27l3.63,2.14L17,11,5.82,14.3l3.57,2.09L1.28,30.69C-.42,33.56-.07,34.84.33,36a9,9,0,0,0,4.15,4.59L16,20.27"/><path class="cls-1" d="M5,30.79a1,1,0,0,0-.71.48l-.12.37,0,.35.16.32.29.25.37.12.36,0,.32-.15.24-.29A1,1,0,0,0,6,31.37l.92.52V32l-.1.39-.15.32a1.77,1.77,0,0,1-.45.53,1.65,1.65,0,0,1-.62.31,1.64,1.64,0,0,1-.7.06,1.79,1.79,0,0,1-.72-.23,1.67,1.67,0,0,1-.56-.49,2,2,0,0,1-.3-.63,1.77,1.77,0,0,1,0-.69,1.84,1.84,0,0,1,.23-.67l.24-.33.32-.29.93.52"/><polyline class="cls-1" points="5.98 29.4 6.62 28.27 5.46 27.61 5.91 26.83 8.91 28.54 8.46 29.32 7.23 28.62 6.58 29.75 7.83 30.45 7.38 31.23 4.38 29.52 4.82 28.74 5.98 29.4"/><polyline class="cls-1" points="7.94 24.79 7.42 25.72 7.92 26.01 8.41 25.13 9.08 25.51 8.58 26.38 9.1 26.68 9.62 25.75 10.29 26.13 9.31 27.83 6.31 26.13 7.28 24.42 7.94 24.79"/><path class="cls-1" d="M9.88,22.18a1,1,0,0,0-.71.48L9.05,23l0,.35.16.32.29.25.37.12.36,0,.32-.16.25-.28a1,1,0,0,0,.06-.85l.92.52v.1l-.1.39-.15.32a1.77,1.77,0,0,1-.45.53,1.81,1.81,0,0,1-.62.31,1.64,1.64,0,0,1-.7.06,1.74,1.74,0,0,1-.72-.23,1.67,1.67,0,0,1-.56-.49,2,2,0,0,1-.3-.63,1.81,1.81,0,0,1,.19-1.36L8.62,22l.33-.3.93.53"/><polyline class="cls-1" points="10.96 20.84 10.26 19.18 10.81 18.21 11.56 20.22 13.88 19.81 13.3 20.82 11.42 21.1 12.72 21.84 12.28 22.62 9.28 20.91 9.72 20.13 10.96 20.84"/><polyline class="cls-1" points="11.44 45.09 10.81 45.09 10.81 44.13 12.57 44.13 12.57 48.47 11.44 48.47 11.44 45.09"/><path class="cls-8" d="M30.75.17V.08L21.47,0C19,0,18.13,2,16.75,4.27l-1.64,3.1,6.54,3.82,3.83-6.85A7.48,7.48,0,0,1,30.75.17"/><path class="cls-8" d="M41.43,23l-3.72,2,11.06,3.72,3.08-11.26L48.2,19.34,39.38,4.43c-1.56-3-2.83-3.32-4-3.58A9,9,0,0,0,29.29,2L41.43,23"/><path class="cls-1" d="M36.12,5.13a1,1,0,0,0-.06-.86L35.81,4l-.32-.16-.36,0-.36.13-.29.26-.16.32,0,.36.12.35a1,1,0,0,0,.71.48l-.92.54-.08-.06-.28-.28-.21-.29a1.78,1.78,0,0,1-.19-1.35,2,2,0,0,1,.3-.64,1.7,1.7,0,0,1,.56-.5A1.93,1.93,0,0,1,35,2.89,1.77,1.77,0,0,1,35.7,3a1.65,1.65,0,0,1,.62.31,1.68,1.68,0,0,1,.46.53l.17.37.1.43-.93.54"/><polyline class="cls-1" points="37.9 5.89 35.57 7.25 36.11 8.18 35.46 8.56 34.46 6.86 37.45 5.12 37.9 5.89"/><polyline class="cls-1" points="39.05 9.39 38.52 8.46 38.02 8.76 38.52 9.63 37.87 10.01 37.36 9.14 36.84 9.44 37.38 10.36 36.73 10.74 35.74 9.04 38.72 7.3 39.71 9 39.05 9.39"/><path class="cls-1" d="M38.68,12.91,38,11.8l-.62.12-.48-.82,3.65-.61.49.85-2.32,2.88-.48-.83.41-.48m.47-.55.79-.93-1.19.23Z"/><polyline class="cls-1" points="38.99 14.63 41.98 12.89 42.43 13.67 41.44 16.17 43.27 15.11 43.71 15.88 40.73 17.62 40.28 16.84 41.27 14.35 39.45 15.41 38.99 14.63"/><path class="cls-1" d="M21,8,17.9,6.33l1.48-.46a9.9,9.9,0,0,0,.95-.33,4.89,4.89,0,0,0,.57-.29L21.19,5l.14-.18.06-.18V4.47l-.08-.18-.17-.14-.38,0-.3.27-.07.17L19.31,4a1.83,1.83,0,0,1,.44-.54,1.43,1.43,0,0,1,.57-.3,1.47,1.47,0,0,1,.63,0,1.86,1.86,0,0,1,.65.22,1.89,1.89,0,0,1,.53.43,1.34,1.34,0,0,1,.31.54,1.34,1.34,0,0,1,.07.6,1.5,1.5,0,0,1-.19.6,1.28,1.28,0,0,1-.45.5,2.29,2.29,0,0,1-.72.31l-1,.24,1.23.68L21,8"/><path class="cls-8" d="M51.28,45.21l.08,0,4.84-7.93c1.25-2.07,0-3.88-1.25-6.24l-1.82-3-6.64,3.65,3.92,6.8a7.49,7.49,0,0,1,.87,6.67"/><path class="cls-8" d="M26.59,42.65l.27-4.1-8.77,7.7,8.18,8.32.16-4.14,17.13-.11c3.35.14,4.3-.78,5.12-1.67a9,9,0,0,0,2.07-5.83l-24.16-.17"/><path class="cls-1" d="M29.32,48.15H28.21l-.86-1.33v1.33h-.9V44.7h1.4a1.6,1.6,0,0,1,.51.08l.35.23.21.34.07.41a1,1,0,0,1-.18.64,1,1,0,0,1-.57.34l1.09,1.41m-2-1.91h.17a.61.61,0,0,0,.41-.11l.14-.31-.14-.32a.67.67,0,0,0-.41-.11h-.17Z"/><polyline class="cls-1" points="31.61 45.45 30.55 45.45 30.55 46.03 31.56 46.03 31.56 46.79 30.55 46.79 30.55 47.39 31.62 47.39 31.62 48.15 29.66 48.15 29.65 44.69 31.61 44.69 31.61 45.45"/><path class="cls-1" d="M34.84,45.84a1,1,0,0,0-.77-.38l-.37.08-.3.19-.19.31-.07.37.07.38.2.3.3.2.36.08a1,1,0,0,0,.77-.37v1.06l-.09,0-.39.11-.35,0a1.81,1.81,0,0,1-.69-.14,1.85,1.85,0,0,1-.58-.37,2,2,0,0,1-.4-.59,1.77,1.77,0,0,1-.15-.73,1.73,1.73,0,0,1,.15-.73,2,2,0,0,1,.39-.58,1.85,1.85,0,0,1,.58-.37,1.82,1.82,0,0,1,.7-.14l.4,0,.42.14v1.07"/><polyline class="cls-1" points="36.34 46.48 35.08 44.68 36.15 44.68 36.79 45.63 37.42 44.68 38.5 44.68 37.23 46.48 37.24 48.14 36.34 48.14 36.34 46.48"/><path class="cls-1" d="M41.05,45.83a.94.94,0,0,0-.77-.38l-.37.07-.3.2-.19.3-.07.38.07.38.2.3.29.2.37.07a1,1,0,0,0,.77-.36v1.06l-.1,0-.38.11-.35,0a1.81,1.81,0,0,1-.69-.14,1.72,1.72,0,0,1-.58-.38,1.87,1.87,0,0,1-.4-.58,1.77,1.77,0,0,1-.15-.73,1.73,1.73,0,0,1,.15-.73,1.85,1.85,0,0,1,.39-.58,1.69,1.69,0,0,1,.58-.37,1.64,1.64,0,0,1,.69-.14l.41,0,.42.14v1.07"/><polyline class="cls-1" points="42.61 44.67 42.61 47.37 43.69 47.36 43.69 48.12 41.72 48.13 41.71 44.67 42.61 44.67"/><polyline class="cls-1" points="46.2 45.42 45.14 45.43 45.14 46 46.15 46 46.15 46.76 45.14 46.76 45.14 47.36 46.21 47.36 46.21 48.12 44.25 48.12 44.24 44.67 46.2 44.66 46.2 45.42"/><path class="cls-1" d="M51.63,33.44l.07,0,0,0L52,33.1l0-.35-.27-.21-.34.05-.22.29.07.37-.91.52a2.47,2.47,0,0,1-.15-.61,1.41,1.41,0,0,1,.07-.55,1.35,1.35,0,0,1,.27-.48,2.23,2.23,0,0,1,.47-.38,1.83,1.83,0,0,1,.56-.21,1.25,1.25,0,0,1,.51,0l.45.2a1.38,1.38,0,0,1,.35.4,1.05,1.05,0,0,1,.15.5l-.13.47a1,1,0,0,1,.64.06,1.08,1.08,0,0,1,.49.48,1.4,1.4,0,0,1,.18.57,1.22,1.22,0,0,1-.08.57,1.67,1.67,0,0,1-.33.53,2.38,2.38,0,0,1-.54.43,2,2,0,0,1-.88.28,1.45,1.45,0,0,1-.87-.22l-.32-.26-.22-.32,1-.55a.6.6,0,0,0,.38.31l.47-.08a.57.57,0,0,0,.3-.36l-.08-.41-.35-.29-.42.07-.09.06-.09.08-.35-.62"/><polyline class="cls-9" points="26.23 36.6 18.76 26.11 22.67 23.32 27.32 29.85 52.47 11.43 55.3 15.3 26.23 36.6"/></g></g></svg>